<svg version="1.1" id="Layer_1" xmlns="http://www.w3.org/2000/svg" xmlns:xlink="http://www.w3.org/1999/xlink" x="0px" y="0px"
	 width="100%" viewBox="0 0 4501 4501" enable-background="new 0 0 4501 4501" xml:space="preserve">
<path fill="#FFFFFF" opacity="1.000000" stroke="none" 
	d="
M2856.000000,4508.000000 
	C1904.105225,4508.000000 954.210510,4508.000000 4.157897,4508.000000 
	C4.157897,3006.938232 4.157897,1505.876587 4.157897,4.407431 
	C1504.895264,4.407431 3005.790527,4.407431 4507.342773,4.407431 
	C4507.342773,1505.333130 4507.342773,3006.666504 4507.342773,4508.000000 
	C3957.875244,4508.000000 3407.937744,4508.000000 2856.000000,4508.000000 
M2190.899658,1379.126587 
	C2230.666016,1478.622559 2270.399170,1578.131958 2310.206055,1677.611694 
	C2401.438477,1905.606934 2492.712158,2133.585693 2583.934082,2361.585205 
	C2586.598389,2368.244385 2588.874023,2375.059082 2592.007324,2383.657715 
	C2584.968262,2383.657715 2579.825684,2383.646484 2574.682861,2383.659424 
	C2531.355713,2383.768066 2488.028564,2383.857910 2444.701416,2383.998291 
	C2357.381836,2384.281250 2270.062012,2384.575928 2182.742676,2384.937256 
	C2178.259521,2384.955811 2173.779053,2385.640869 2168.967041,2386.043213 
	C2091.246582,2579.389160 2013.826782,2771.987061 1936.508667,2964.332275 
	C1969.862549,3047.121826 2002.911743,3129.154785 2035.965332,3211.198730 
	C2256.905762,3211.198730 2476.660400,3211.198730 2696.847900,3211.198730 
	C2698.193115,3202.782227 2693.766846,3196.468262 2691.157227,3189.916992 
	C2664.065674,3121.906250 2636.666504,3054.018066 2609.600098,2985.997559 
	C2606.986572,2979.429932 2602.240723,2973.210938 2603.800781,2964.253174 
	C2611.102295,2964.118896 2618.276123,2963.871582 2625.449951,2963.871094 
	C2931.414551,2963.851807 3237.378906,2963.854492 3543.343506,2963.854492 
	C3563.341064,2963.854492 3583.339600,2963.935791 3603.335693,2963.775879 
	C3606.942627,2963.746582 3611.125244,2965.222900 3614.855469,2960.390137 
	C3309.793945,2198.641602 3004.518311,1436.354370 2699.188477,674.088928 
	C2697.975342,671.060547 2695.979004,668.346008 2694.390381,665.558105 
	C2432.164551,665.558105 2170.360840,665.558105 1908.708618,665.558105 
	C1905.681763,673.459229 1910.600220,679.130249 1912.929565,684.992798 
	C1946.347778,769.099060 1980.078247,853.081238 2013.712280,937.101746 
	C2072.325439,1083.522339 2130.923340,1229.948975 2190.899658,1379.126587 
M1353.963013,2040.135742 
	C1333.169189,2092.079102 1312.384033,2144.026123 1291.580078,2195.965576 
	C1138.283691,2578.684082 984.986023,2961.402344 831.682617,3344.118164 
	C800.722961,3421.407715 769.711243,3498.676270 738.812988,3575.990479 
	C736.409424,3582.004883 732.270691,3587.675293 733.744507,3594.914551 
	C735.861877,3595.272949 737.818787,3595.894775 739.775513,3595.894287 
	C999.083557,3595.822266 1258.391602,3595.704834 1517.699585,3595.565918 
	C1518.327026,3595.565674 1518.980835,3595.270752 1519.574463,3595.006104 
	C1520.178711,3594.736816 1520.723633,3594.334473 1522.655518,3593.170410 
	C1744.065674,3040.477051 1965.947021,2486.607178 2187.766602,1932.892212 
	C2056.844971,1606.274048 1926.258789,1280.488281 1795.598389,954.732422 
	C1795.214355,953.775391 1793.746460,953.253052 1791.912476,951.869629 
	C1787.062378,955.681274 1786.025879,961.788452 1783.903931,967.062561 
	C1759.044312,1028.853516 1734.288818,1090.686401 1709.528198,1152.517334 
	C1591.420898,1447.447632 1473.320312,1742.380737 1353.963013,2040.135742 
M2011.645874,3489.830566 
	C2014.368774,3487.927734 2017.283203,3486.246582 2019.784058,3484.086914 
	C2038.199707,3468.184082 2041.155273,3447.542480 2034.968994,3425.815918 
	C2029.043579,3405.005859 2012.322510,3395.556152 1991.895996,3392.199219 
	C1980.981689,3390.405029 1934.592896,3391.192383 1920.174927,3393.103760 
	C1919.850098,3394.834717 1919.192749,3396.699463 1919.194824,3398.563721 
	C1919.263672,3460.454590 1919.393921,3522.345703 1919.538818,3584.236572 
	C1919.540405,3584.880615 1919.721436,3585.611084 1920.064819,3586.142334 
	C1920.378906,3586.628174 1921.026978,3586.898193 1921.774414,3587.443115 
	C1927.997559,3587.443115 1934.451660,3587.443115 1941.554199,3587.443115 
	C1944.485107,3559.766846 1940.775391,3532.565674 1943.593872,3506.556885 
	C1945.380493,3505.408936 1945.879517,3504.837158 1946.433838,3504.776855 
	C1948.414185,3504.562988 1950.422607,3504.612305 1952.403564,3504.401855 
	C1971.844360,3502.337402 1985.740479,3510.839111 1995.595337,3527.034424 
	C2000.779541,3535.553955 2005.912598,3544.104736 2011.073242,3552.638672 
	C2018.245483,3564.499512 2025.421875,3576.357178 2032.226562,3587.604736 
	C2041.537109,3587.604736 2049.376465,3587.604736 2057.463379,3587.604736 
	C2049.834229,3567.953125 2014.859131,3514.201172 1998.582764,3497.050781 
	C2002.203003,3495.119873 2005.675293,3493.267822 2011.645874,3489.830566 
M2924.181396,3513.896240 
	C2921.564209,3510.885986 2918.796143,3507.991211 2916.375977,3504.830078 
	C2914.242188,3502.043701 2909.458984,3501.406494 2909.439941,3496.368896 
	C2913.685547,3494.213135 2917.953857,3492.344971 2921.925781,3489.979004 
	C2942.719482,3477.594971 2952.143066,3455.978760 2947.417969,3431.876221 
	C2943.144775,3410.079346 2925.340088,3394.800781 2900.755615,3392.021729 
	C2896.133545,3391.499512 2891.449219,3391.378174 2886.791748,3391.352051 
	C2871.472412,3391.266602 2856.151123,3391.198975 2840.833496,3391.384033 
	C2837.129883,3391.428955 2833.438477,3392.471680 2829.035400,3393.167236 
	C2829.035400,3453.457031 2829.030273,3512.703857 2829.047607,3571.950684 
	C2829.048584,3575.943848 2829.182129,3579.938965 2829.355225,3583.928711 
	C2829.381104,3584.521484 2829.937256,3585.111084 2830.304932,3585.664307 
	C2830.656250,3586.192383 2831.082031,3586.671143 2831.804688,3587.591064 
	C2837.995605,3587.591064 2844.513916,3587.591064 2852.262695,3587.591064 
	C2853.337402,3560.006836 2852.050537,3532.964355 2853.057373,3505.342773 
	C2858.786377,3504.983887 2863.354980,3504.644531 2867.929199,3504.420898 
	C2882.450928,3503.710449 2893.789551,3509.598633 2902.037354,3521.378174 
	C2906.229492,3527.365723 2910.112061,3533.582764 2913.903320,3539.836426 
	C2923.523193,3555.704102 2933.012695,3571.651367 2942.561768,3587.579102 
	C2951.629639,3588.361572 2959.876953,3589.248779 2970.011230,3586.584473 
	C2954.694336,3562.205322 2940.249512,3539.214600 2924.181396,3513.896240 
M2155.899658,3462.584229 
	C2153.724121,3465.102539 2151.769531,3467.867432 2149.312744,3470.072021 
	C2146.707764,3472.409424 2145.763916,3477.535645 2139.158203,3475.540527 
	C2138.170654,3462.186768 2138.876465,3448.383545 2138.705078,3434.621826 
	C2138.532959,3420.810791 2138.955811,3406.979004 2138.368896,3392.313232 
	C2133.963623,3391.889404 2130.766357,3391.336182 2127.569580,3391.338379 
	C2123.787842,3391.341309 2120.006592,3391.823975 2115.695801,3392.137451 
	C2115.695801,3457.788574 2115.695801,3522.218018 2115.695801,3586.940674 
	C2123.174072,3588.850342 2130.176270,3589.016357 2137.999023,3586.707520 
	C2138.240479,3580.388184 2138.634033,3574.492920 2138.660156,3568.596191 
	C2138.751709,3547.960693 2138.625244,3527.323486 2138.837158,3506.689697 
	C2138.865967,3503.861328 2140.339600,3501.047852 2141.701416,3496.276123 
	C2168.519287,3527.911621 2193.832031,3557.771729 2219.214111,3587.713623 
	C2229.295898,3588.392090 2238.877197,3588.964600 2250.651123,3587.230469 
	C2243.378174,3576.768066 2235.777588,3569.471436 2228.982178,3561.557373 
	C2221.611084,3552.973389 2214.046631,3544.555420 2206.565674,3536.065918 
	C2199.524658,3528.075684 2192.476074,3520.092041 2185.441650,3512.096191 
	C2177.993164,3503.629150 2170.557373,3495.150879 2162.794434,3486.311768 
	C2166.204346,3482.062744 2169.005615,3478.416016 2171.976807,3474.913086 
	C2174.989746,3471.360840 2178.168213,3467.949463 2181.278076,3464.479492 
	C2184.387939,3461.010254 2187.510254,3457.552246 2190.613281,3454.076660 
	C2193.716797,3450.601318 2196.798584,3447.106934 2199.898682,3443.628418 
	C2202.555908,3440.646973 2205.225586,3437.676025 2207.889648,3434.700439 
	C2210.997803,3431.229248 2214.104004,3427.755859 2217.214111,3424.286621 
	C2220.324951,3420.817871 2223.447754,3417.360107 2226.549805,3413.883545 
	C2229.651367,3410.406982 2232.806885,3406.974365 2235.802979,3403.408203 
	C2238.516357,3400.178711 2242.227051,3397.485840 2243.591797,3391.944336 
	C2233.707764,3391.944336 2225.260498,3391.944336 2216.600586,3391.944336 
	C2196.845703,3414.915527 2177.332764,3437.605225 2155.899658,3462.584229 
M3768.781982,3406.807129 
	C3772.393555,3402.463135 3776.004883,3398.119141 3780.986328,3392.127686 
	C3770.149170,3392.127686 3761.726562,3392.127686 3752.734375,3392.127686 
	C3748.044189,3397.447266 3743.165527,3402.865479 3738.412598,3408.391846 
	C3720.180664,3429.589111 3702.023193,3450.851074 3683.729248,3471.994873 
	C3681.841797,3474.176270 3680.328857,3478.078125 3674.691162,3474.946289 
	C3674.691162,3466.497559 3674.690918,3457.306152 3674.690918,3448.114990 
	C3674.690918,3438.793701 3674.760010,3429.471924 3674.671631,3420.151611 
	C3674.585449,3411.038574 3674.338867,3401.927246 3674.150635,3392.186279 
	C3669.522461,3391.804932 3666.289062,3391.257324 3663.073486,3391.346191 
	C3659.293701,3391.450439 3655.077148,3390.114990 3652.047119,3393.707764 
	C3650.223633,3419.429932 3650.675537,3571.729248 3652.691406,3587.469971 
	C3659.637939,3588.455322 3666.617920,3589.227295 3674.691162,3586.298828 
	C3674.691162,3579.872803 3674.687256,3573.963867 3674.691895,3568.054932 
	C3674.708008,3547.415283 3674.621826,3526.774658 3674.873291,3506.137695 
	C3674.905762,3503.477783 3676.693848,3500.839111 3678.192139,3496.768066 
	C3704.802002,3528.205566 3730.133545,3558.133057 3756.109863,3588.822021 
	C3765.606934,3586.805176 3775.311523,3590.461426 3786.394775,3585.966064 
	C3756.567139,3551.987793 3727.765625,3519.177979 3698.378418,3485.701172 
	C3721.768799,3459.511963 3744.351318,3434.227051 3768.781982,3406.807129 
M2424.134766,3566.248779 
	C2427.127197,3573.475830 2430.119629,3580.703125 2433.189453,3588.116943 
	C2441.821533,3587.745605 2449.505615,3589.774658 2457.857178,3586.093750 
	C2432.642090,3520.617920 2407.816895,3456.154297 2383.077393,3391.913086 
	C2373.951904,3391.387207 2366.067871,3390.252686 2357.898438,3392.949707 
	C2333.187256,3457.495605 2308.170898,3521.728027 2283.513428,3587.417725 
	C2293.121582,3587.417725 2300.887695,3587.417725 2309.119629,3587.417725 
	C2317.223877,3569.452393 2320.878906,3550.264404 2330.163330,3533.560059 
	C2357.342041,3533.560059 2383.815186,3533.560059 2411.300049,3533.560059 
	C2415.347656,3543.633057 2419.281982,3553.424805 2424.134766,3566.248779 
M2703.203613,3406.625244 
	C2701.075684,3401.846191 2698.947754,3397.067383 2696.384521,3391.310547 
	C2692.199463,3391.310547 2688.286133,3391.226562 2684.377930,3391.333984 
	C2680.527100,3391.439453 2676.682129,3391.739746 2672.532959,3391.971191 
	C2647.508789,3457.285889 2622.410889,3521.548096 2597.797363,3587.484619 
	C2607.448975,3587.484619 2615.233887,3587.484619 2622.992432,3587.484619 
	C2631.744141,3569.790771 2634.937012,3550.433105 2644.448730,3533.448730 
	C2671.654297,3533.448730 2698.161377,3533.448730 2725.768555,3533.448730 
	C2732.760254,3551.452637 2739.691162,3569.299805 2746.740723,3587.452881 
	C2755.327148,3587.452881 2763.107178,3587.452881 2772.589600,3587.452881 
	C2749.444824,3527.291748 2726.789795,3468.403564 2703.203613,3406.625244 
M1832.379028,3578.405273 
	C1833.809326,3581.360352 1835.239746,3584.315674 1837.132568,3588.226807 
	C1844.864380,3587.514160 1852.689087,3589.630859 1861.725342,3586.667969 
	C1849.071899,3553.764648 1836.802246,3521.502686 1824.260742,3489.346680 
	C1811.527588,3456.699463 1799.962036,3423.571777 1786.150269,3391.972900 
	C1777.366943,3391.972900 1770.135498,3391.972900 1761.814453,3391.972900 
	C1737.371216,3456.115479 1713.005371,3520.049316 1688.672974,3583.996338 
	C1688.453979,3584.571533 1688.536743,3585.367432 1688.745850,3585.967529 
	C1688.921509,3586.471924 1689.487427,3586.840820 1690.303223,3587.730469 
	C1697.168213,3587.730469 1704.386719,3587.730469 1712.650879,3587.730469 
	C1716.160645,3578.458252 1719.444336,3569.118164 1723.225098,3559.983887 
	C1726.971069,3550.933594 1727.646118,3540.446289 1735.083130,3533.111816 
	C1760.762207,3533.111816 1786.070312,3533.107666 1811.378418,3533.136230 
	C1811.991943,3533.136963 1812.645996,3533.425293 1813.206665,3533.720703 
	C1813.788086,3534.027100 1814.279053,3534.505615 1816.158813,3535.934570 
	C1820.915039,3548.175781 1826.197388,3561.771484 1832.379028,3578.405273 
M3510.300293,3588.284180 
	C3534.733398,3588.224609 3559.166504,3588.165039 3584.510254,3588.103271 
	C3585.121094,3580.338867 3586.142578,3574.100342 3583.394531,3567.298340 
	C3569.879883,3567.298340 3557.299805,3567.437256 3544.724365,3567.259766 
	C3531.610840,3567.074707 3518.426514,3568.104492 3505.550781,3566.467529 
	C3503.156982,3543.722412 3503.582520,3514.058350 3506.600830,3499.203369 
	C3528.683594,3498.308594 3551.163330,3499.630615 3573.486572,3498.423096 
	C3576.490723,3490.916748 3576.556641,3484.760010 3573.523438,3477.603027 
	C3568.731201,3477.397705 3564.178467,3477.057129 3559.623779,3477.033936 
	C3544.991211,3476.958984 3530.356445,3477.119629 3515.726318,3476.915283 
	C3512.050537,3476.864014 3508.388916,3475.787109 3504.146484,3475.086670 
	C3504.146484,3463.953857 3503.865723,3454.023926 3504.223877,3444.117432 
	C3504.596924,3433.796631 3502.352295,3423.188477 3506.358154,3412.409668 
	C3515.017578,3412.409668 3522.940186,3412.409668 3530.862549,3412.409668 
	C3539.509277,3412.409668 3548.157715,3412.519287 3556.802246,3412.377441 
	C3564.544434,3412.250488 3572.405518,3413.095215 3580.117920,3411.546143 
	C3580.117920,3404.373535 3580.117920,3398.622070 3580.117920,3391.429443 
	C3568.207520,3391.383789 3557.015137,3391.325195 3545.822754,3391.302979 
	C3535.180664,3391.281738 3524.528809,3391.017334 3513.898926,3391.376221 
	C3502.966309,3391.745605 3491.777588,3389.718506 3480.370605,3393.061523 
	C3480.370605,3415.539551 3480.370850,3436.791504 3480.370850,3458.043213 
	C3480.370850,3479.992676 3480.099121,3501.946777 3480.448730,3523.890625 
	C3480.783691,3544.923340 3478.869141,3566.055664 3481.769287,3588.284180 
	C3490.617920,3588.284180 3498.503174,3588.284180 3510.300293,3588.284180 
M3017.655029,3428.878906 
	C3012.452637,3452.829590 3022.184570,3470.309082 3041.541992,3483.448242 
	C3046.475342,3486.796631 3051.750977,3489.668945 3057.004150,3492.511230 
	C3065.766602,3497.251953 3074.765869,3501.566406 3083.417480,3506.496094 
	C3089.164551,3509.770752 3094.868652,3513.343018 3099.902344,3517.598145 
	C3109.216553,3525.472168 3113.584229,3535.567139 3110.167236,3547.826660 
	C3106.761963,3560.045166 3097.956787,3566.017822 3085.871094,3568.573730 
	C3066.825439,3572.601807 3048.923584,3569.034424 3031.436523,3561.627441 
	C3026.814453,3559.669434 3022.249756,3557.576172 3016.754639,3555.145020 
	C3016.754639,3564.429443 3016.754639,3572.220947 3016.754639,3581.028809 
	C3035.618164,3589.252441 3054.904297,3592.964844 3075.105957,3591.478760 
	C3087.083496,3590.597412 3098.864502,3588.272461 3109.640625,3582.629150 
	C3137.165771,3568.214600 3144.936035,3533.865967 3125.552979,3509.562988 
	C3119.872559,3502.441650 3112.281982,3496.498535 3104.659668,3491.361816 
	C3095.889893,3485.451416 3086.075439,3481.103760 3076.787354,3475.946777 
	C3069.242920,3471.757568 3061.421631,3467.917480 3054.413574,3462.948730 
	C3044.529785,3455.940674 3039.020020,3446.130127 3041.738281,3433.691406 
	C3044.426514,3421.389404 3053.212402,3414.827637 3065.055420,3411.730225 
	C3075.517334,3408.993896 3086.059814,3407.888672 3096.639893,3410.364746 
	C3106.673096,3412.712646 3116.569336,3415.646729 3127.279541,3418.525635 
	C3127.744385,3410.177490 3128.832520,3402.396729 3126.183350,3394.157959 
	C3101.803711,3385.599365 3077.590332,3385.221191 3053.586914,3392.994141 
	C3037.155273,3398.315186 3024.250977,3408.484619 3017.655029,3428.878906 
M3365.171143,3426.017334 
	C3365.431396,3422.062256 3365.691650,3418.106934 3365.980225,3413.720947 
	C3384.535645,3410.468506 3403.232666,3414.349609 3421.884766,3411.213867 
	C3421.884766,3404.550781 3421.884766,3398.795166 3421.884766,3392.477783 
	C3406.002441,3390.048828 3390.728027,3391.624268 3375.535400,3391.336182 
	C3360.890137,3391.058350 3346.228760,3390.994141 3331.586914,3391.354492 
	C3316.499512,3391.725586 3301.276611,3389.704590 3285.851074,3392.704102 
	C3285.851074,3399.251221 3285.851074,3404.953857 3285.851074,3412.098633 
	C3304.347900,3412.312744 3322.097656,3412.518311 3341.072754,3412.737793 
	C3342.291504,3428.494873 3341.556885,3443.010742 3341.693359,3457.479248 
	C3341.825439,3471.462646 3341.721680,3485.448242 3341.721680,3499.432861 
	C3341.721680,3514.083252 3341.476562,3528.739258 3341.791016,3543.382812 
	C3342.102783,3557.900879 3340.377197,3572.519043 3343.182129,3587.949219 
	C3350.566162,3587.614746 3357.632812,3590.152588 3365.169189,3586.052490 
	C3365.169189,3533.834717 3365.169189,3481.925049 3365.171143,3426.017334 
M3226.286133,3553.347656 
	C3226.300537,3508.746338 3226.284180,3464.145020 3226.413574,3419.543945 
	C3226.420410,3417.117432 3227.644775,3414.694580 3228.303711,3412.264893 
	C3231.726562,3412.020264 3234.383057,3411.945557 3237.005859,3411.609131 
	C3239.421875,3411.299561 3241.801758,3410.708252 3245.186279,3410.048096 
	C3244.795898,3403.426025 3244.464355,3397.804688 3244.119385,3391.950928 
	C3223.578125,3391.950928 3204.455322,3391.950928 3184.084473,3391.950928 
	C3184.078369,3398.883301 3181.515137,3405.198975 3186.040527,3411.130859 
	C3191.354004,3411.697021 3196.479736,3412.243408 3201.008057,3412.725830 
	C3201.863281,3415.296387 3202.609863,3416.494141 3202.610107,3417.691895 
	C3202.621826,3466.280029 3202.579346,3514.868164 3202.436279,3563.456055 
	C3202.433350,3564.499268 3201.185059,3565.538574 3200.087158,3567.251953 
	C3195.456787,3567.718750 3190.322510,3568.236572 3185.335449,3568.739258 
	C3183.485596,3579.309570 3183.587891,3579.310547 3186.378418,3588.123779 
	C3204.213623,3588.123779 3222.170166,3588.150879 3240.125977,3588.059814 
	C3241.276611,3588.053955 3242.422607,3587.133057 3244.283203,3586.330566 
	C3244.283203,3580.917236 3244.283203,3575.205811 3244.283203,3569.422852 
	C3237.917969,3568.259766 3232.381104,3567.248047 3226.814697,3566.230957 
	C3226.593018,3562.378662 3226.442383,3559.759277 3226.286133,3553.347656 
z"/>
<path fill="#010101" opacity="1.000000" stroke="none" 
	d="
M2190.213867,1377.749878 
	C2130.923340,1229.948975 2072.325439,1083.522339 2013.712280,937.101746 
	C1980.078247,853.081238 1946.347778,769.099060 1912.929565,684.992798 
	C1910.600220,679.130249 1905.681763,673.459229 1908.708618,665.558105 
	C2170.360840,665.558105 2432.164551,665.558105 2694.390381,665.558105 
	C2695.979004,668.346008 2697.975342,671.060547 2699.188477,674.088928 
	C3004.518311,1436.354370 3309.793945,2198.641602 3614.855469,2960.390137 
	C3611.125244,2965.222900 3606.942627,2963.746582 3603.335693,2963.775879 
	C3583.339600,2963.935791 3563.341064,2963.854492 3543.343506,2963.854492 
	C3237.378906,2963.854492 2931.414551,2963.851807 2625.449951,2963.871094 
	C2618.276123,2963.871582 2611.102295,2964.118896 2603.800781,2964.253174 
	C2602.240723,2973.210938 2606.986572,2979.429932 2609.600098,2985.997559 
	C2636.666504,3054.018066 2664.065674,3121.906250 2691.157227,3189.916992 
	C2693.766846,3196.468262 2698.193115,3202.782227 2696.847900,3211.198730 
	C2476.660400,3211.198730 2256.905762,3211.198730 2035.965332,3211.198730 
	C2002.911743,3129.154785 1969.862549,3047.121826 1936.508667,2964.332275 
	C2013.826782,2771.987061 2091.246582,2579.389160 2168.967041,2386.043213 
	C2173.779053,2385.640869 2178.259521,2384.955811 2182.742676,2384.937256 
	C2270.062012,2384.575928 2357.381836,2384.281250 2444.701416,2383.998291 
	C2488.028564,2383.857910 2531.355713,2383.768066 2574.682861,2383.659424 
	C2579.825684,2383.646484 2584.968262,2383.657715 2592.007324,2383.657715 
	C2588.874023,2375.059082 2586.598389,2368.244385 2583.934082,2361.585205 
	C2492.712158,2133.585693 2401.438477,1905.606934 2310.206055,1677.611694 
	C2270.399170,1578.131958 2230.666016,1478.622559 2190.213867,1377.749878 
z"/>
<path fill="#686868" opacity="1.000000" stroke="none" 
	d="
M1354.590088,2038.724365 
	C1473.320312,1742.380737 1591.420898,1447.447632 1709.528198,1152.517334 
	C1734.288818,1090.686401 1759.044312,1028.853516 1783.903931,967.062561 
	C1786.025879,961.788452 1787.062378,955.681274 1791.912476,951.869629 
	C1793.746460,953.253052 1795.214355,953.775391 1795.598389,954.732422 
	C1926.258789,1280.488281 2056.844971,1606.274048 2187.766602,1932.892212 
	C1965.947021,2486.607178 1744.065674,3040.477051 1522.655518,3593.170410 
	C1520.723633,3594.334473 1520.178711,3594.736816 1519.574463,3595.006104 
	C1518.980835,3595.270752 1518.327026,3595.565674 1517.699585,3595.565918 
	C1258.391602,3595.704834 999.083557,3595.822266 739.775513,3595.894287 
	C737.818787,3595.894775 735.861877,3595.272949 733.744507,3594.914551 
	C732.270691,3587.675293 736.409424,3582.004883 738.812988,3575.990479 
	C769.711243,3498.676270 800.722961,3421.407715 831.682617,3344.118164 
	C984.986023,2961.402344 1138.283691,2578.684082 1291.580078,2195.965576 
	C1312.384033,2144.026123 1333.169189,2092.079102 1354.590088,2038.724365 
z"/>
<path fill="#0F0D0D" opacity="1.000000" stroke="none" 
	d="
M2010.396729,3490.623047 
	C2005.675293,3493.267822 2002.203003,3495.119873 1998.582764,3497.050781 
	C2014.859131,3514.201172 2049.834229,3567.953125 2057.463379,3587.604736 
	C2049.376465,3587.604736 2041.537109,3587.604736 2032.226562,3587.604736 
	C2025.421875,3576.357178 2018.245483,3564.499512 2011.073242,3552.638672 
	C2005.912598,3544.104736 2000.779541,3535.553955 1995.595337,3527.034424 
	C1985.740479,3510.839111 1971.844360,3502.337402 1952.403564,3504.401855 
	C1950.422607,3504.612305 1948.414185,3504.562988 1946.433838,3504.776855 
	C1945.879517,3504.837158 1945.380493,3505.408936 1943.593872,3506.556885 
	C1940.775391,3532.565674 1944.485107,3559.766846 1941.554199,3587.443115 
	C1934.451660,3587.443115 1927.997559,3587.443115 1921.774414,3587.443115 
	C1921.026978,3586.898193 1920.378906,3586.628174 1920.064819,3586.142334 
	C1919.721436,3585.611084 1919.540405,3584.880615 1919.538818,3584.236572 
	C1919.393921,3522.345703 1919.263672,3460.454590 1919.194824,3398.563721 
	C1919.192749,3396.699463 1919.850098,3394.834717 1920.174927,3393.103760 
	C1934.592896,3391.192383 1980.981689,3390.405029 1991.895996,3392.199219 
	C2012.322510,3395.556152 2029.043579,3405.005859 2034.968994,3425.815918 
	C2041.155273,3447.542480 2038.199707,3468.184082 2019.784058,3484.086914 
	C2017.283203,3486.246582 2014.368774,3487.927734 2010.396729,3490.623047 
M1950.368042,3412.375000 
	C1945.630737,3412.136230 1942.699097,3414.054443 1942.680054,3419.106934 
	C1942.614502,3436.436035 1942.540649,3453.765625 1942.636597,3471.093994 
	C1942.657349,3474.854492 1943.370239,3478.611572 1943.870239,3483.381104 
	C1955.720093,3483.381104 1966.291992,3483.794434 1976.807495,3483.205078 
	C1982.010376,3482.913574 1987.378296,3481.406494 1992.205322,3479.353271 
	C2006.665405,3473.202637 2014.093750,3459.064697 2012.617920,3441.751465 
	C2011.342407,3426.787842 2002.466919,3417.220459 1986.049438,3413.562744 
	C1982.186523,3412.701904 1978.127930,3412.528564 1974.149048,3412.419678 
	C1967.488770,3412.237305 1960.820190,3412.360840 1950.368042,3412.375000 
z"/>
<path fill="#100D0D" opacity="1.000000" stroke="none" 
	d="
M2924.993164,3515.060059 
	C2940.249512,3539.214600 2954.694336,3562.205322 2970.011230,3586.584473 
	C2959.876953,3589.248779 2951.629639,3588.361572 2942.561768,3587.579102 
	C2933.012695,3571.651367 2923.523193,3555.704102 2913.903320,3539.836426 
	C2910.112061,3533.582764 2906.229492,3527.365723 2902.037354,3521.378174 
	C2893.789551,3509.598633 2882.450928,3503.710449 2867.929199,3504.420898 
	C2863.354980,3504.644531 2858.786377,3504.983887 2853.057373,3505.342773 
	C2852.050537,3532.964355 2853.337402,3560.006836 2852.262695,3587.591064 
	C2844.513916,3587.591064 2837.995605,3587.591064 2831.804688,3587.591064 
	C2831.082031,3586.671143 2830.656250,3586.192383 2830.304932,3585.664307 
	C2829.937256,3585.111084 2829.381104,3584.521484 2829.355225,3583.928711 
	C2829.182129,3579.938965 2829.048584,3575.943848 2829.047607,3571.950684 
	C2829.030273,3512.703857 2829.035400,3453.457031 2829.035400,3393.167236 
	C2833.438477,3392.471680 2837.129883,3391.428955 2840.833496,3391.384033 
	C2856.151123,3391.198975 2871.472412,3391.266602 2886.791748,3391.352051 
	C2891.449219,3391.378174 2896.133545,3391.499512 2900.755615,3392.021729 
	C2925.340088,3394.800781 2943.144775,3410.079346 2947.417969,3431.876221 
	C2952.143066,3455.978760 2942.719482,3477.594971 2921.925781,3489.979004 
	C2917.953857,3492.344971 2913.685547,3494.213135 2909.439941,3496.368896 
	C2909.458984,3501.406494 2914.242188,3502.043701 2916.375977,3504.830078 
	C2918.796143,3507.991211 2921.564209,3510.885986 2924.993164,3515.060059 
M2852.563477,3423.248779 
	C2853.291504,3442.940430 2850.990967,3462.762939 2854.094238,3483.016113 
	C2868.927002,3483.445801 2882.808350,3485.391602 2896.453857,3481.526611 
	C2914.939941,3476.290039 2925.146484,3461.468506 2923.684326,3442.682373 
	C2922.389160,3426.045654 2910.851318,3414.607910 2891.859375,3412.827637 
	C2880.661133,3411.777832 2869.285889,3412.470947 2857.994141,3412.643555 
	C2853.826660,3412.707031 2852.767090,3415.930176 2852.563477,3423.248779 
z"/>
<path fill="#121010" opacity="1.000000" stroke="none" 
	d="
M2156.859863,3461.439453 
	C2177.332764,3437.605225 2196.845703,3414.915527 2216.600586,3391.944336 
	C2225.260498,3391.944336 2233.707764,3391.944336 2243.591797,3391.944336 
	C2242.227051,3397.485840 2238.516357,3400.178711 2235.802979,3403.408203 
	C2232.806885,3406.974365 2229.651367,3410.406982 2226.549805,3413.883545 
	C2223.447754,3417.360107 2220.324951,3420.817871 2217.214111,3424.286621 
	C2214.104004,3427.755859 2210.997803,3431.229248 2207.889648,3434.700439 
	C2205.225586,3437.676025 2202.555908,3440.646973 2199.898682,3443.628418 
	C2196.798584,3447.106934 2193.716797,3450.601318 2190.613281,3454.076660 
	C2187.510254,3457.552246 2184.387939,3461.010254 2181.278076,3464.479492 
	C2178.168213,3467.949463 2174.989746,3471.360840 2171.976807,3474.913086 
	C2169.005615,3478.416016 2166.204346,3482.062744 2162.794434,3486.311768 
	C2170.557373,3495.150879 2177.993164,3503.629150 2185.441650,3512.096191 
	C2192.476074,3520.092041 2199.524658,3528.075684 2206.565674,3536.065918 
	C2214.046631,3544.555420 2221.611084,3552.973389 2228.982178,3561.557373 
	C2235.777588,3569.471436 2243.378174,3576.768066 2250.651123,3587.230469 
	C2238.877197,3588.964600 2229.295898,3588.392090 2219.214111,3587.713623 
	C2193.832031,3557.771729 2168.519287,3527.911621 2141.701416,3496.276123 
	C2140.339600,3501.047852 2138.865967,3503.861328 2138.837158,3506.689697 
	C2138.625244,3527.323486 2138.751709,3547.960693 2138.660156,3568.596191 
	C2138.634033,3574.492920 2138.240479,3580.388184 2137.999023,3586.707520 
	C2130.176270,3589.016357 2123.174072,3588.850342 2115.695801,3586.940674 
	C2115.695801,3522.218018 2115.695801,3457.788574 2115.695801,3392.137451 
	C2120.006592,3391.823975 2123.787842,3391.341309 2127.569580,3391.338379 
	C2130.766357,3391.336182 2133.963623,3391.889404 2138.368896,3392.313232 
	C2138.955811,3406.979004 2138.532959,3420.810791 2138.705078,3434.621826 
	C2138.876465,3448.383545 2138.170654,3462.186768 2139.158203,3475.540527 
	C2145.763916,3477.535645 2146.707764,3472.409424 2149.312744,3470.072021 
	C2151.769531,3467.867432 2153.724121,3465.102539 2156.859863,3461.439453 
z"/>
<path fill="#121010" opacity="1.000000" stroke="none" 
	d="
M3767.857910,3407.874756 
	C3744.351318,3434.227051 3721.768799,3459.511963 3698.378418,3485.701172 
	C3727.765625,3519.177979 3756.567139,3551.987793 3786.394775,3585.966064 
	C3775.311523,3590.461426 3765.606934,3586.805176 3756.109863,3588.822021 
	C3730.133545,3558.133057 3704.802002,3528.205566 3678.192139,3496.768066 
	C3676.693848,3500.839111 3674.905762,3503.477783 3674.873291,3506.137695 
	C3674.621826,3526.774658 3674.708008,3547.415283 3674.691895,3568.054932 
	C3674.687256,3573.963867 3674.691162,3579.872803 3674.691162,3586.298828 
	C3666.617920,3589.227295 3659.637939,3588.455322 3652.691406,3587.469971 
	C3650.675537,3571.729248 3650.223633,3419.429932 3652.047119,3393.707764 
	C3655.077148,3390.114990 3659.293701,3391.450439 3663.073486,3391.346191 
	C3666.289062,3391.257324 3669.522461,3391.804932 3674.150635,3392.186279 
	C3674.338867,3401.927246 3674.585449,3411.038574 3674.671631,3420.151611 
	C3674.760010,3429.471924 3674.690918,3438.793701 3674.690918,3448.114990 
	C3674.690918,3457.306152 3674.691162,3466.497559 3674.691162,3474.946289 
	C3680.328857,3478.078125 3681.841797,3474.176270 3683.729248,3471.994873 
	C3702.023193,3450.851074 3720.180664,3429.589111 3738.412598,3408.391846 
	C3743.165527,3402.865479 3748.044189,3397.447266 3752.734375,3392.127686 
	C3761.726562,3392.127686 3770.149170,3392.127686 3780.986328,3392.127686 
	C3776.004883,3398.119141 3772.393555,3402.463135 3767.857910,3407.874756 
z"/>
<path fill="#0F0B0B" opacity="1.000000" stroke="none" 
	d="
M2423.675781,3564.732666 
	C2419.281982,3553.424805 2415.347656,3543.633057 2411.300049,3533.560059 
	C2383.815186,3533.560059 2357.342041,3533.560059 2330.163330,3533.560059 
	C2320.878906,3550.264404 2317.223877,3569.452393 2309.119629,3587.417725 
	C2300.887695,3587.417725 2293.121582,3587.417725 2283.513428,3587.417725 
	C2308.170898,3521.728027 2333.187256,3457.495605 2357.898438,3392.949707 
	C2366.067871,3390.252686 2373.951904,3391.387207 2383.077393,3391.913086 
	C2407.816895,3456.154297 2432.642090,3520.617920 2457.857178,3586.093750 
	C2449.505615,3589.774658 2441.821533,3587.745605 2433.189453,3588.116943 
	C2430.119629,3580.703125 2427.127197,3573.475830 2423.675781,3564.732666 
M2339.006104,3510.944824 
	C2357.538574,3511.333984 2376.070068,3511.763184 2394.604004,3512.064209 
	C2397.058594,3512.104004 2399.523438,3511.491943 2403.610596,3510.976562 
	C2392.546631,3480.854980 2381.859619,3451.759277 2370.120361,3419.799072 
	C2358.922852,3450.993652 2348.720947,3479.413818 2339.006104,3510.944824 
z"/>
<path fill="#0F0C0C" opacity="1.000000" stroke="none" 
	d="
M2703.669434,3408.070312 
	C2726.789795,3468.403564 2749.444824,3527.291748 2772.589600,3587.452881 
	C2763.107178,3587.452881 2755.327148,3587.452881 2746.740723,3587.452881 
	C2739.691162,3569.299805 2732.760254,3551.452637 2725.768555,3533.448730 
	C2698.161377,3533.448730 2671.654297,3533.448730 2644.448730,3533.448730 
	C2634.937012,3550.433105 2631.744141,3569.790771 2622.992432,3587.484619 
	C2615.233887,3587.484619 2607.448975,3587.484619 2597.797363,3587.484619 
	C2622.410889,3521.548096 2647.508789,3457.285889 2672.532959,3391.971191 
	C2676.682129,3391.739746 2680.527100,3391.439453 2684.377930,3391.333984 
	C2688.286133,3391.226562 2692.199463,3391.310547 2696.384521,3391.310547 
	C2698.947754,3397.067383 2701.075684,3401.846191 2703.669434,3408.070312 
M2705.250244,3476.790283 
	C2698.917236,3459.425781 2692.584473,3442.061035 2686.057617,3424.164062 
	C2684.128906,3425.828613 2681.887207,3426.806152 2681.349121,3428.370117 
	C2671.899902,3455.834961 2660.411621,3482.611084 2651.733154,3512.069580 
	C2674.128662,3511.808350 2694.963623,3513.046387 2717.556885,3511.058105 
	C2713.520508,3499.492676 2710.059082,3489.574707 2705.250244,3476.790283 
z"/>
<path fill="#0F0B0B" opacity="1.000000" stroke="none" 
	d="
M1831.929443,3576.886230 
	C1826.197388,3561.771484 1820.915039,3548.175781 1816.158813,3535.934570 
	C1814.279053,3534.505615 1813.788086,3534.027100 1813.206665,3533.720703 
	C1812.645996,3533.425293 1811.991943,3533.136963 1811.378418,3533.136230 
	C1786.070312,3533.107666 1760.762207,3533.111816 1735.083130,3533.111816 
	C1727.646118,3540.446289 1726.971069,3550.933594 1723.225098,3559.983887 
	C1719.444336,3569.118164 1716.160645,3578.458252 1712.650879,3587.730469 
	C1704.386719,3587.730469 1697.168213,3587.730469 1690.303223,3587.730469 
	C1689.487427,3586.840820 1688.921509,3586.471924 1688.745850,3585.967529 
	C1688.536743,3585.367432 1688.453979,3584.571533 1688.672974,3583.996338 
	C1713.005371,3520.049316 1737.371216,3456.115479 1761.814453,3391.972900 
	C1770.135498,3391.972900 1777.366943,3391.972900 1786.150269,3391.972900 
	C1799.962036,3423.571777 1811.527588,3456.699463 1824.260742,3489.346680 
	C1836.802246,3521.502686 1849.071899,3553.764648 1861.725342,3586.667969 
	C1852.689087,3589.630859 1844.864380,3587.514160 1837.132568,3588.226807 
	C1835.239746,3584.315674 1833.809326,3581.360352 1831.929443,3576.886230 
M1784.943481,3512.126953 
	C1791.881836,3511.610352 1799.055054,3513.207031 1807.220215,3510.584473 
	C1796.107544,3480.362793 1785.424194,3451.309082 1774.040771,3420.350830 
	C1767.737549,3437.157471 1761.627441,3451.838379 1756.748413,3466.917480 
	C1752.000488,3481.591064 1744.077881,3495.376709 1742.196899,3512.126953 
	C1756.165161,3512.126953 1768.737793,3512.126953 1784.943481,3512.126953 
z"/>
<path fill="#100D0D" opacity="1.000000" stroke="none" 
	d="
M3508.344238,3588.284180 
	C3498.503174,3588.284180 3490.617920,3588.284180 3481.769287,3588.284180 
	C3478.869141,3566.055664 3480.783691,3544.923340 3480.448730,3523.890625 
	C3480.099121,3501.946777 3480.370850,3479.992676 3480.370850,3458.043213 
	C3480.370850,3436.791504 3480.370605,3415.539551 3480.370605,3393.061523 
	C3491.777588,3389.718506 3502.966309,3391.745605 3513.898926,3391.376221 
	C3524.528809,3391.017334 3535.180664,3391.281738 3545.822754,3391.302979 
	C3557.015137,3391.325195 3568.207520,3391.383789 3580.117920,3391.429443 
	C3580.117920,3398.622070 3580.117920,3404.373535 3580.117920,3411.546143 
	C3572.405518,3413.095215 3564.544434,3412.250488 3556.802246,3412.377441 
	C3548.157715,3412.519287 3539.509277,3412.409668 3530.862549,3412.409668 
	C3522.940186,3412.409668 3515.017578,3412.409668 3506.358154,3412.409668 
	C3502.352295,3423.188477 3504.596924,3433.796631 3504.223877,3444.117432 
	C3503.865723,3454.023926 3504.146484,3463.953857 3504.146484,3475.086670 
	C3508.388916,3475.787109 3512.050537,3476.864014 3515.726318,3476.915283 
	C3530.356445,3477.119629 3544.991211,3476.958984 3559.623779,3477.033936 
	C3564.178467,3477.057129 3568.731201,3477.397705 3573.523438,3477.603027 
	C3576.556641,3484.760010 3576.490723,3490.916748 3573.486572,3498.423096 
	C3551.163330,3499.630615 3528.683594,3498.308594 3506.600830,3499.203369 
	C3503.582520,3514.058350 3503.156982,3543.722412 3505.550781,3566.467529 
	C3518.426514,3568.104492 3531.610840,3567.074707 3544.724365,3567.259766 
	C3557.299805,3567.437256 3569.879883,3567.298340 3583.394531,3567.298340 
	C3586.142578,3574.100342 3585.121094,3580.338867 3584.510254,3588.103271 
	C3559.166504,3588.165039 3534.733398,3588.224609 3508.344238,3588.284180 
z"/>
<path fill="#110D0D" opacity="1.000000" stroke="none" 
	d="
M3018.191406,3427.392334 
	C3024.250977,3408.484619 3037.155273,3398.315186 3053.586914,3392.994141 
	C3077.590332,3385.221191 3101.803711,3385.599365 3126.183350,3394.157959 
	C3128.832520,3402.396729 3127.744385,3410.177490 3127.279541,3418.525635 
	C3116.569336,3415.646729 3106.673096,3412.712646 3096.639893,3410.364746 
	C3086.059814,3407.888672 3075.517334,3408.993896 3065.055420,3411.730225 
	C3053.212402,3414.827637 3044.426514,3421.389404 3041.738281,3433.691406 
	C3039.020020,3446.130127 3044.529785,3455.940674 3054.413574,3462.948730 
	C3061.421631,3467.917480 3069.242920,3471.757568 3076.787354,3475.946777 
	C3086.075439,3481.103760 3095.889893,3485.451416 3104.659668,3491.361816 
	C3112.281982,3496.498535 3119.872559,3502.441650 3125.552979,3509.562988 
	C3144.936035,3533.865967 3137.165771,3568.214600 3109.640625,3582.629150 
	C3098.864502,3588.272461 3087.083496,3590.597412 3075.105957,3591.478760 
	C3054.904297,3592.964844 3035.618164,3589.252441 3016.754639,3581.028809 
	C3016.754639,3572.220947 3016.754639,3564.429443 3016.754639,3555.145020 
	C3022.249756,3557.576172 3026.814453,3559.669434 3031.436523,3561.627441 
	C3048.923584,3569.034424 3066.825439,3572.601807 3085.871094,3568.573730 
	C3097.956787,3566.017822 3106.761963,3560.045166 3110.167236,3547.826660 
	C3113.584229,3535.567139 3109.216553,3525.472168 3099.902344,3517.598145 
	C3094.868652,3513.343018 3089.164551,3509.770752 3083.417480,3506.496094 
	C3074.765869,3501.566406 3065.766602,3497.251953 3057.004150,3492.511230 
	C3051.750977,3489.668945 3046.475342,3486.796631 3041.541992,3483.448242 
	C3022.184570,3470.309082 3012.452637,3452.829590 3018.191406,3427.392334 
z"/>
<path fill="#120F0F" opacity="1.000000" stroke="none" 
	d="
M3365.170166,3428.016602 
	C3365.169189,3481.925049 3365.169189,3533.834717 3365.169189,3586.052490 
	C3357.632812,3590.152588 3350.566162,3587.614746 3343.182129,3587.949219 
	C3340.377197,3572.519043 3342.102783,3557.900879 3341.791016,3543.382812 
	C3341.476562,3528.739258 3341.721680,3514.083252 3341.721680,3499.432861 
	C3341.721680,3485.448242 3341.825439,3471.462646 3341.693359,3457.479248 
	C3341.556885,3443.010742 3342.291504,3428.494873 3341.072754,3412.737793 
	C3322.097656,3412.518311 3304.347900,3412.312744 3285.851074,3412.098633 
	C3285.851074,3404.953857 3285.851074,3399.251221 3285.851074,3392.704102 
	C3301.276611,3389.704590 3316.499512,3391.725586 3331.586914,3391.354492 
	C3346.228760,3390.994141 3360.890137,3391.058350 3375.535400,3391.336182 
	C3390.728027,3391.624268 3406.002441,3390.048828 3421.884766,3392.477783 
	C3421.884766,3398.795166 3421.884766,3404.550781 3421.884766,3411.213867 
	C3403.232666,3414.349609 3384.535645,3410.468506 3365.980225,3413.720947 
	C3365.691650,3418.106934 3365.431396,3422.062256 3365.170166,3428.016602 
z"/>
<path fill="#121010" opacity="1.000000" stroke="none" 
	d="
M3226.289062,3555.243652 
	C3226.442383,3559.759277 3226.593018,3562.378662 3226.814697,3566.230957 
	C3232.381104,3567.248047 3237.917969,3568.259766 3244.283203,3569.422852 
	C3244.283203,3575.205811 3244.283203,3580.917236 3244.283203,3586.330566 
	C3242.422607,3587.133057 3241.276611,3588.053955 3240.125977,3588.059814 
	C3222.170166,3588.150879 3204.213623,3588.123779 3186.378418,3588.123779 
	C3183.587891,3579.310547 3183.485596,3579.309570 3185.335449,3568.739258 
	C3190.322510,3568.236572 3195.456787,3567.718750 3200.087158,3567.251953 
	C3201.185059,3565.538574 3202.433350,3564.499268 3202.436279,3563.456055 
	C3202.579346,3514.868164 3202.621826,3466.280029 3202.610107,3417.691895 
	C3202.609863,3416.494141 3201.863281,3415.296387 3201.008057,3412.725830 
	C3196.479736,3412.243408 3191.354004,3411.697021 3186.040527,3411.130859 
	C3181.515137,3405.198975 3184.078369,3398.883301 3184.084473,3391.950928 
	C3204.455322,3391.950928 3223.578125,3391.950928 3244.119385,3391.950928 
	C3244.464355,3397.804688 3244.795898,3403.426025 3245.186279,3410.048096 
	C3241.801758,3410.708252 3239.421875,3411.299561 3237.005859,3411.609131 
	C3234.383057,3411.945557 3231.726562,3412.020264 3228.303711,3412.264893 
	C3227.644775,3414.694580 3226.420410,3417.117432 3226.413574,3419.543945 
	C3226.284180,3464.145020 3226.300537,3508.746338 3226.289062,3555.243652 
z"/>
<path fill="#F7FAFA" opacity="1.000000" stroke="none" 
	d="
M1952.261475,3412.365234 
	C1960.820190,3412.360840 1967.488770,3412.237305 1974.149048,3412.419678 
	C1978.127930,3412.528564 1982.186523,3412.701904 1986.049438,3413.562744 
	C2002.466919,3417.220459 2011.342407,3426.787842 2012.617920,3441.751465 
	C2014.093750,3459.064697 2006.665405,3473.202637 1992.205322,3479.353271 
	C1987.378296,3481.406494 1982.010376,3482.913574 1976.807495,3483.205078 
	C1966.291992,3483.794434 1955.720093,3483.381104 1943.870239,3483.381104 
	C1943.370239,3478.611572 1942.657349,3474.854492 1942.636597,3471.093994 
	C1942.540649,3453.765625 1942.614502,3436.436035 1942.680054,3419.106934 
	C1942.699097,3414.054443 1945.630737,3412.136230 1952.261475,3412.365234 
z"/>
<path fill="#F3F5F5" opacity="1.000000" stroke="none" 
	d="
M2852.585449,3421.380371 
	C2852.767090,3415.930176 2853.826660,3412.707031 2857.994141,3412.643555 
	C2869.285889,3412.470947 2880.661133,3411.777832 2891.859375,3412.827637 
	C2910.851318,3414.607910 2922.389160,3426.045654 2923.684326,3442.682373 
	C2925.146484,3461.468506 2914.939941,3476.290039 2896.453857,3481.526611 
	C2882.808350,3485.391602 2868.927002,3483.445801 2854.094238,3483.016113 
	C2850.990967,3462.762939 2853.291504,3442.940430 2852.585449,3421.380371 
z"/>
<path fill="#F2F5F5" opacity="1.000000" stroke="none" 
	d="
M2338.762695,3509.389404 
	C2348.720947,3479.413818 2358.922852,3450.993652 2370.120361,3419.799072 
	C2381.859619,3451.759277 2392.546631,3480.854980 2403.610596,3510.976562 
	C2399.523438,3511.491943 2397.058594,3512.104004 2394.604004,3512.064209 
	C2376.070068,3511.763184 2357.538574,3511.333984 2338.762695,3509.389404 
z"/>
<path fill="#F2F5F5" opacity="1.000000" stroke="none" 
	d="
M2705.923828,3478.223389 
	C2710.059082,3489.574707 2713.520508,3499.492676 2717.556885,3511.058105 
	C2694.963623,3513.046387 2674.128662,3511.808350 2651.733154,3512.069580 
	C2660.411621,3482.611084 2671.899902,3455.834961 2681.349121,3428.370117 
	C2681.887207,3426.806152 2684.128906,3425.828613 2686.057617,3424.164062 
	C2692.584473,3442.061035 2698.917236,3459.425781 2705.923828,3478.223389 
z"/>
<path fill="#F2F5F5" opacity="1.000000" stroke="none" 
	d="
M1783.126953,3512.126953 
	C1768.737793,3512.126953 1756.165161,3512.126953 1742.196899,3512.126953 
	C1744.077881,3495.376709 1752.000488,3481.591064 1756.748413,3466.917480 
	C1761.627441,3451.838379 1767.737549,3437.157471 1774.040771,3420.350830 
	C1785.424194,3451.309082 1796.107544,3480.362793 1807.220215,3510.584473 
	C1799.055054,3513.207031 1791.881836,3511.610352 1783.126953,3512.126953 
z"/>
</svg>